<?xml version="1.0" encoding="UTF-8"?>
<svg xmlns="http://www.w3.org/2000/svg"
     xml:space="preserve"
     width="4.01334in"
     height="1.88361in"
     version="1.1"
     style="shape-rendering:geometricPrecision; text-rendering:geometricPrecision; image-rendering:optimizeQuality; fill-rule:evenodd; clip-rule:evenodd"
     viewBox="0 0 4013 1884">
 <defs>
  <style type="text/css">
   <![CDATA[
    .fil1 {fill:url(#id0)}
    .fil0 {fill:url(#id0);fill-rule:nonzero}
   ]]>
  </style>
  <linearGradient id="id0" gradientUnits="userSpaceOnUse" x1="2229.59" y1="119.008" x2="1783.74" y2="1125.05">
   <stop offset="0" style="stop-opacity:1; stop-color:#29EAFF"/>
   <stop offset="0.470588" style="stop-opacity:1; stop-color:#1EA3FB"/>
   <stop offset="1" style="stop-opacity:1; stop-color:#135CF7"/>
  </linearGradient>
 </defs>
 <g>
  <path class="fil0" d="M1288 1244l719 -1244c239,415 478,829 718,1244 -218,0 -435,0 -653,0l131 -226 -196 -339 -196 339 65 113 65 113c-217,0 -435,0 -653,0zm662 -920l-466 807 261 0 -65 -113c90,-156 180,-312 270,-468l0 -226zm113 226c90,156 180,312 270,468l-65 113 261 0 -466 -807 0 226zm-56 355l65 113 -65 113 -66 -113 66 -113z"/>
 </g>
 <g>
  <path class="fil1" d="M318 1884l69 0 -161 -357 -65 0 -161 357 68 0 36 -83 178 0 36 83zm-192 -135l67 -156 67 156 -134 0zm338 135l156 0c116,0 195,-72 195,-179 0,-107 -79,-178 -195,-178l-156 0 0 357zm66 -57l0 -244 87 0c80,0 131,48 131,122 0,74 -51,122 -131,122l-87 0zm649 57l70 0 -162 -357 -65 0 -160 357 68 0 35 -83 179 0 35 83zm-191 -135l66 -156 68 156 -134 0zm729 135l-1 -357 -54 0 -140 236 -142 -236 -54 0 0 357 63 0 0 -234 117 193 30 0 117 -196 1 237 63 0zm521 -186c28,-15 46,-42 46,-79 0,-56 -46,-92 -131,-92l-168 0 0 357 178 0c92,0 140,-36 140,-97 0,-47 -27,-77 -65,-89zm-93 -119c46,0 72,16 72,49 0,33 -26,49 -72,49l-93 0 0 -98 93 0zm14 253l-107 0 0 -103 107 0c50,0 77,15 77,51 0,36 -27,52 -77,52zm513 52l70 0 -161 -357 -66 0 -160 357 68 0 35 -83 179 0 35 83zm-191 -135l66 -156 68 156 -134 0zm338 135l66 0 0 -357 -66 0 0 357zm194 0l253 0 0 -57 -187 0 0 -300 -66 0 0 357zm404 -56l0 -98 172 0 0 -55 -172 0 0 -93 194 0 0 -55 -261 0 0 357 268 0 0 -56 -201 0zm596 -301l-65 0 -106 173 -104 -173 -71 0 140 232 0 125 67 0 0 -126 139 -231z"/>
 </g>
</svg>
